<?xml version="1.0" encoding="UTF-8" standalone="no"?>
<!-- Creator: CorelDRAW -->

<svg
   xmlns:dc="http://purl.org/dc/elements/1.1/"
   xmlns:cc="http://creativecommons.org/ns#"
   xmlns:rdf="http://www.w3.org/1999/02/22-rdf-syntax-ns#"
   xmlns:svg="http://www.w3.org/2000/svg"
   xmlns="http://www.w3.org/2000/svg"
   xmlns:xlink="http://www.w3.org/1999/xlink"
   xmlns:sodipodi="http://sodipodi.sourceforge.net/DTD/sodipodi-0.dtd"
   xmlns:inkscape="http://www.inkscape.org/namespaces/inkscape"
   xml:space="preserve"
   width="400"
   height="400"
   style="fill-rule:evenodd"
   viewBox="0 0 112.8889 112.8889"
   id="svg3841"
   version="1.1"
   inkscape:version="0.47 r22583"
   sodipodi:docname="gebr-speed-veryhigh.svg"
   inkscape:export-filename="/home/ian/Projects/gebrproject/libgebr/gui/icons/gebr-theme/48x48/stock/gebr-speed-medium.png"
   inkscape:export-xdpi="8.8562822"
   inkscape:export-ydpi="8.8562822"><metadata
   id="metadata3926"><rdf:RDF><cc:Work
       rdf:about=""><dc:format>image/svg+xml</dc:format><dc:type
         rdf:resource="http://purl.org/dc/dcmitype/StillImage" /><dc:title /></cc:Work></rdf:RDF></metadata><sodipodi:namedview
   pagecolor="#ffffff"
   bordercolor="#666666"
   borderopacity="1"
   objecttolerance="10"
   gridtolerance="10"
   guidetolerance="10"
   inkscape:pageopacity="0"
   inkscape:pageshadow="2"
   inkscape:window-width="1680"
   inkscape:window-height="999"
   id="namedview3924"
   showgrid="false"
   inkscape:zoom="0.96763083"
   inkscape:cx="126.45049"
   inkscape:cy="152.52102"
   inkscape:window-x="0"
   inkscape:window-y="24"
   inkscape:window-maximized="1"
   inkscape:current-layer="svg3841"
   showguides="true"
   inkscape:guide-bbox="true"
   inkscape:snap-object-midpoints="true" />
 <defs
   id="defs3843"><linearGradient
   y2="45.4146"
   x2="114.07"
   y1="45.4146"
   x1="23.2647"
   gradientUnits="userSpaceOnUse"
   id="linearGradient4562">
   <stop
   id="stop4564"
   style="stop-color:#ffffff;stop-opacity:0.1392405"
   offset="0" />
   <stop
   id="stop4566"
   style="stop-color:#ffffff;stop-opacity:0.41772151"
   offset="1" />
  </linearGradient><inkscape:perspective
   sodipodi:type="inkscape:persp3d"
   inkscape:vp_x="0 : 243.89467 : 1"
   inkscape:vp_y="0 : 1000 : 0"
   inkscape:vp_z="487.78934 : 243.89467 : 1"
   inkscape:persp3d-origin="243.89467 : 162.59645 : 1"
   id="perspective3928" />
  <style
   type="text/css"
   id="style3845">
   
    .str0 {stroke:#373435;stroke-width:0.2}
    .str2 {stroke:#B0913C;stroke-width:1}
    .str1 {stroke:#D19F22;stroke-width:1}
    .fil7 {fill:none}
    .fil2 {fill:#373435}
    .fil10 {fill:#606062}
    .fil8 {fill:#A9ABAE}
    .fil13 {fill:#D2D3D5}
    .fil11 {fill:#FEFEFE}
    .fil9 {fill:#0B0B0B}
    .fil14 {fill:#D19F22}
    .fil12 {fill:url(#id0)}
    .fil3 {fill:url(#id1)}
    .fil6 {fill:url(#id2)}
    .fil15 {fill:url(#id3)}
    .fil4 {fill:url(#id4)}
    .fil5 {fill:url(#id5)}
    .fil1 {fill:url(#id6)}
    .fil0 {fill:url(#id7)}
   
  </style>
  <linearGradient
   id="id0"
   gradientUnits="userSpaceOnUse"
   x1="68.781799"
   y1="102.081"
   x2="68.781799"
   y2="123.38">
   <stop
   offset="0"
   style="stop-color:#D19F22"
   id="stop3848" />
   <stop
   offset="1"
   style="stop-color:#AD8108"
   id="stop3850" />
  </linearGradient>
  <linearGradient
   id="id1"
   gradientUnits="userSpaceOnUse"
   x1="17.561001"
   y1="68.832497"
   x2="120.104"
   y2="68.832497">
   <stop
   offset="0"
   style="stop-color:#383637"
   id="stop3853" />
   <stop
   offset="1"
   style="stop-color:#202020"
   id="stop3855" />
  </linearGradient>
  <linearGradient
   id="id2"
   gradientUnits="userSpaceOnUse"
   x1="14.5133"
   y1="56.2985"
   x2="124.072"
   y2="56.2985">
   <stop
   offset="0"
   style="stop-color:#A20000"
   id="stop3858" />
   <stop
   offset="1"
   style="stop-color:#E90101"
   id="stop3860" />
  </linearGradient>
  <linearGradient
   id="id3"
   gradientUnits="userSpaceOnUse"
   x1="23.379999"
   y1="35.157799"
   x2="114.185"
   y2="35.157799">
   <stop
   offset="0"
   style="stop-color:#A33B3B"
   id="stop3863" />
   <stop
   offset="1"
   style="stop-color:#E84C4C"
   id="stop3865" />
  </linearGradient>
  <linearGradient
   id="id4"
   gradientUnits="userSpaceOnUse"
   x1="10.5341"
   y1="56.898399"
   x2="127.252"
   y2="56.898399">
   <stop
   offset="0"
   style="stop-color:#B20000"
   id="stop3868" />
   <stop
   offset="1"
   style="stop-color:#FE0000"
   id="stop3870" />
  </linearGradient>
  <linearGradient
   id="id5"
   gradientUnits="userSpaceOnUse"
   x1="23.2647"
   y1="45.4146"
   x2="114.07"
   y2="45.4146">
   <stop
   offset="0"
   style="stop-color:#B33030"
   id="stop3873" />
   <stop
   offset="1"
   style="stop-color:#FC6262"
   id="stop3875" />
  </linearGradient>
  <linearGradient
   id="id6"
   gradientUnits="userSpaceOnUse"
   x1="7.0367999"
   y1="16.794001"
   x2="130.62801"
   y2="120.871">
   <stop
   offset="0"
   style="stop-color:#373435"
   id="stop3878" />
   <stop
   offset="1"
   style="stop-color:#FEFEFE"
   id="stop3880" />
  </linearGradient>
  <linearGradient
   id="id7"
   gradientUnits="userSpaceOnUse"
   x1="126.769"
   y1="141.25301"
   x2="10.896"
   y2="-3.5881">
   <stop
   offset="0"
   style="stop-color:#383838"
   id="stop3883" />
   <stop
   offset="0.509804"
   style="stop-color:#0B0B0B"
   id="stop3885" />
   <stop
   offset="1"
   style="stop-color:#FEFEFE"
   id="stop3887" />
  </linearGradient>
 
  
  
 <linearGradient
   inkscape:collect="always"
   xlink:href="#id7"
   id="linearGradient3977"
   gradientUnits="userSpaceOnUse"
   x1="126.769"
   y1="141.25301"
   x2="10.896"
   y2="-3.5881" /><linearGradient
   inkscape:collect="always"
   xlink:href="#id6"
   id="linearGradient3979"
   gradientUnits="userSpaceOnUse"
   x1="7.0367999"
   y1="16.794001"
   x2="130.62801"
   y2="120.871" /><linearGradient
   inkscape:collect="always"
   xlink:href="#id1"
   id="linearGradient3981"
   gradientUnits="userSpaceOnUse"
   x1="17.561001"
   y1="68.832497"
   x2="120.104"
   y2="68.832497" /><linearGradient
   inkscape:collect="always"
   xlink:href="#id4"
   id="linearGradient3983"
   gradientUnits="userSpaceOnUse"
   x1="10.5341"
   y1="56.898399"
   x2="127.252"
   y2="56.898399" /><linearGradient
   inkscape:collect="always"
   xlink:href="#id5"
   id="linearGradient3985"
   gradientUnits="userSpaceOnUse"
   x1="23.2647"
   y1="45.4146"
   x2="114.07"
   y2="45.4146" /><linearGradient
   inkscape:collect="always"
   xlink:href="#id0"
   id="linearGradient3989"
   gradientUnits="userSpaceOnUse"
   x1="68.781799"
   y1="102.081"
   x2="68.781799"
   y2="123.38" />
   
   
   
   
   
   
   
   
   
   
   
   
   
   
   
  <linearGradient
   inkscape:collect="always"
   xlink:href="#id0"
   id="linearGradient4005"
   gradientUnits="userSpaceOnUse"
   x1="68.781799"
   y1="102.081"
   x2="68.781799"
   y2="123.38" /><linearGradient
   inkscape:collect="always"
   xlink:href="#linearGradient4562"
   id="linearGradient4020"
   gradientUnits="userSpaceOnUse"
   x1="23.2647"
   y1="45.4146"
   x2="114.07"
   y2="45.4146"
   gradientTransform="scale(3.5433068,3.5433068)" /><linearGradient
   inkscape:collect="always"
   xlink:href="#id1"
   id="linearGradient4026"
   gradientUnits="userSpaceOnUse"
   x1="17.561001"
   y1="68.832497"
   x2="120.104"
   y2="68.832497" />
    
    
    
    
    
    
    
    
   
    
    
    
    
    
    
    
   <linearGradient
   inkscape:collect="always"
   xlink:href="#id7"
   id="linearGradient4626"
   gradientUnits="userSpaceOnUse"
   x1="126.769"
   y1="141.25301"
   x2="10.896"
   y2="-3.5881" /><linearGradient
   inkscape:collect="always"
   xlink:href="#id6"
   id="linearGradient4628"
   gradientUnits="userSpaceOnUse"
   x1="7.0367999"
   y1="16.794001"
   x2="130.62801"
   y2="120.871"
   gradientTransform="matrix(3.5433068,0,0,3.5433068,5.411937e-6,5.411937e-6)" /><linearGradient
   inkscape:collect="always"
   xlink:href="#linearGradient4562"
   id="linearGradient4087"
   gradientUnits="userSpaceOnUse"
   gradientTransform="translate(1.527369e-6,1.527369e-6)"
   x1="23.2647"
   y1="45.4146"
   x2="114.07"
   y2="45.4146" /><linearGradient
   inkscape:collect="always"
   xlink:href="#id1"
   id="linearGradient4100"
   gradientUnits="userSpaceOnUse"
   x1="17.561001"
   y1="68.832497"
   x2="120.104"
   y2="68.832497"
   gradientTransform="translate(1.527369e-6,1.527369e-6)" /><linearGradient
   inkscape:collect="always"
   xlink:href="#id6"
   id="linearGradient3693"
   gradientUnits="userSpaceOnUse"
   gradientTransform="matrix(0.94339359,0,0,0.94334769,-7.3212922,-14.42183)"
   x1="7.0367999"
   y1="16.794001"
   x2="130.62801"
   y2="120.871" /><linearGradient
   inkscape:collect="always"
   xlink:href="#id6"
   id="linearGradient3702"
   gradientUnits="userSpaceOnUse"
   gradientTransform="matrix(0.94339359,0,0,0.94334769,-7.3212922,-14.42183)"
   x1="7.0367999"
   y1="16.794001"
   x2="130.62801"
   y2="120.871" /></defs>
 <path
   style="fill:#000000;stroke:#373435;stroke-width:0.20000000000000001;fill-opacity:1"
   d="m 56.44445,15.831992 c -31.117669,0 -56.3444493,27.003625 -56.3444493,60.313062 0,7.353064 1.2272861,14.396091 3.477847,20.911853 l 105.7248823,0 c 2.25113,-6.516479 3.48617,-13.557826 3.48617,-20.911853 0,-33.309437 -25.226777,-60.313062 -56.34445,-60.313062 z"
   id="_177024496" /><path
   style="fill:#ff0000;fill-opacity:1"
   d="m 56.519333,17.426209 c -30.386988,0 -55.0215373,26.369681 -55.0215373,58.896969 0,7.29739 1.2446345,14.284496 3.5111279,20.733729 l 103.0208264,0 c 2.26606,-6.448705 3.51112,-13.437057 3.51112,-20.733729 0,-32.527288 -24.63455,-58.896969 -55.021537,-58.896969 z"
   id="_461869376" /><path
   style="opacity:0.61354586;fill:#0b0b0b;stroke:#373435;stroke-width:0.2"
   d="m 56.44445,42.221184 c -17.499823,0 -31.691673,15.191449 -31.691673,33.92387 0,7.891294 2.525406,15.149515 6.747689,20.911853 l 49.887968,0 C 85.610641,91.2946 88.1278,84.036268 88.1278,76.145054 c 0,-18.732421 -14.183527,-33.92387 -31.68335,-33.92387 z"
   id="_177020752" /><path
   style="fill:#000000;fill-opacity:1"
   d="m 98.633425,60.559385 c 1.339514,4.409373 2.369185,10.046228 2.432305,14.917702 l 7.48819,0 c -0.0683,-6.171744 -1.08647,-12.106383 -2.89543,-17.634357 l -7.025065,2.716655 z m -50.134772,-39.045209 1.297953,7.890928 c 4.681497,-0.854423 9.435616,-0.725837 14.119393,0 l 1.306273,-7.899834 c -5.544723,-1.022419 -11.176872,-0.8627 -16.723619,0.0089 z m 17.94669,0.222655 -1.297953,7.899836 c 4.733384,0.962177 9.202065,2.726348 13.270732,5.16562 l 3.744093,-6.937962 C 77.349775,24.96517 72.055231,22.864319 66.445343,21.736831 z m -19.17808,0.0089 C 41.65756,22.872498 36.371526,24.966463 31.55871,27.864303 l 3.744093,6.946869 c 4.069046,-2.438202 8.537349,-4.213097 13.270733,-5.174566 l -1.306273,-7.890909 z m -16.790181,6.786515 c -4.869904,3.024349 -9.108,7.017989 -12.78816,11.542488 l 5.724303,5.121088 c 3.087538,-3.823259 6.73315,-7.110408 10.807951,-9.716707 l -3.744094,-6.946869 z m 52.766764,0 -3.744097,6.946869 c 4.074138,2.607107 7.721167,5.892439 10.807948,9.716707 l 5.749266,-5.121088 C 92.398917,35.467873 88.04126,31.674965 83.243846,28.532294 z M 16.890182,41.098999 c -3.525934,4.603161 -6.377228,9.820924 -8.3784493,15.487953 l 7.0222553,2.716417 c 1.698581,-4.780285 4.102281,-9.189923 7.072177,-13.083267 l -5.715983,-5.121103 z m 79.97384,0 -5.75758,5.121089 c 2.968858,3.893745 5.374349,8.302778 7.072181,13.083266 l 7.055537,-2.716402 C 103.23388,50.91972 100.38883,45.702562 96.864022,41.098999 z M 8.0874015,57.84273 c -1.8097118,5.527974 -2.81881,11.461802 -2.8871117,17.634357 l 7.4881862,0 c 0.05897,-5.077744 0.895655,-10.121128 2.421182,-14.917952 L 8.0874015,57.84273 z M 5.2002898,76.804117 c 0.068302,6.171746 1.078249,12.106383 2.8871117,17.634357 L 15.126298,91.695352 C 13.607529,87.02332 12.755929,82.012979 12.688476,76.804117 l -7.4881862,0 z m 95.8654402,0 c -0.0674,5.209469 -0.91839,10.219203 -2.437817,14.891235 l 7.038897,2.743122 c 1.8098,-5.527871 2.81881,-11.461802 2.88711,-17.634357 l -7.48819,0 z"
   id="_462375584"
   sodipodi:nodetypes="ccccccccccccccccccccccccccccccccccccccccccccccccccccccc" /><polygon
   id="_177024592"
   class="fil11"
   points="59.2481,71.7616 62.2114,67.9516 115.34,56.0983 63.6931,73.2433 "
   style="fill:#fefefe"
   transform="matrix(0.85505564,0.42666105,-0.39858667,0.91528138,25.021464,-16.227495)"
   inkscape:transform-center-x="-62.857349"
   inkscape:transform-center-y="7.5407272" />
</svg>